<?xml version="1.0" encoding="UTF-8" standalone="no"?>
<svg
   width="868"
   height="348"
   viewBox="0 0 868 348"
   fill="none"
   version="1.1"
   id="svg38"
   sodipodi:docname="background.svg"
   inkscape:version="1.4.3 (0d15f75042, 2025-12-25)"
   xmlns:inkscape="http://www.inkscape.org/namespaces/inkscape"
   xmlns:sodipodi="http://sodipodi.sourceforge.net/DTD/sodipodi-0.dtd"
   xmlns="http://www.w3.org/2000/svg"
   xmlns:svg="http://www.w3.org/2000/svg">
  <sodipodi:namedview
     id="namedview1"
     pagecolor="#ffffff"
     bordercolor="#000000"
     borderopacity="0.25"
     inkscape:showpageshadow="2"
     inkscape:pageopacity="0.0"
     inkscape:pagecheckerboard="0"
     inkscape:deskcolor="#d1d1d1"
     inkscape:zoom="1.0633641"
     inkscape:cx="434"
     inkscape:cy="173.97616"
     inkscape:window-width="2048"
     inkscape:window-height="1083"
     inkscape:window-x="0"
     inkscape:window-y="0"
     inkscape:window-maximized="1"
     inkscape:current-layer="svg38" />
  <rect
     width="868"
     height="348"
     fill="#003e6b"
     id="rect1"
     x="-868"
     y="0"
     transform="scale(-1,1)"
     style="fill:none" />
  <path
     d="M 877.48145,403 829.4814,375 v -56 l 48.00005,-28 47.99995,28 v 56 z"
     fill="#003e6b"
     id="path1"
     clip-path="url(#clipPath39)"
     transform="matrix(1,0,0,-1,0,348)" />
  <path
     d="M 772.9014,403 724.901,375 v -56 l 48.0004,-28 48,28 v 56 z"
     fill="#003e6b"
     id="path2"
     clip-path="url(#clipPath37)"
     transform="matrix(1,0,0,-1,0,348)" />
  <path
     d="m 669.339,403 -48,-28 v -56 l 48,-28 48,28 v 56 z"
     fill="#003e6b"
     id="path3"
     clip-path="url(#clipPath36)"
     transform="matrix(1,0,0,-1,0,348)" />
  <path
     d="m 564.585,403 -48,-28 v -56 l 48,-28 48,28 v 56 z"
     fill="#003e6b"
     id="path4"
     clip-path="url(#clipPath35)"
     style="fill:#2c89a0"
     transform="matrix(1,0,0,-1,0,348)" />
  <path
     d="m 461.022,403 -48,-28 v -56 l 48,-28 48,28 v 56 z"
     fill="#003e6b"
     id="path5"
     clip-path="url(#clipPath34)"
     transform="matrix(1,0,0,-1,0,348)" />
  <path
     d="m 356.269,403 -48,-28 v -56 l 48,-28 48,28 v 56 z"
     fill="#003e6b"
     id="path6"
     clip-path="url(#clipPath33)"
     style="fill:none"
     transform="matrix(1,0,0,-1,0,348)" />
  <path
     d="m 252.706,403 -48,-28 v -56 l 48,-28 48,28 v 56 z"
     fill="#003e6b"
     id="path7"
     clip-path="url(#clipPath32)"
     transform="matrix(1,0,0,-1,0,348)" />
  <path
     d="m 147.953,403 -48,-28 v -56 l 48,-28 48,28 v 56 z"
     fill="#003e6b"
     id="path8"
     clip-path="url(#clipPath31)"
     transform="matrix(1,0,0,-1,0,348)" />
  <path
     d="m 44.39,403 -48,-28 v -56 l 48,-28 48,28 v 56 z"
     fill="#003e6b"
     id="path9"
     clip-path="url(#clipPath30)"
     transform="matrix(1,0,0,-1,0,348)" />
  <path
     d="m 826.4688,312.5 -48,-28 v -56 l 48,-28 47.99995,28 v 56 z"
     fill="#003a63"
     id="path10"
     clip-path="url(#clipPath29)"
     transform="matrix(1,0,0,-1,0,348)" />
  <path
     d="m 722.905,312.5 -48,-28 v -56 l 48,-28 48.0003,28 v 56 z"
     fill="#003e6b"
     id="path11"
     clip-path="url(#clipPath28)"
     style="fill:none"
     transform="matrix(1,0,0,-1,0,348)" />
  <path
     d="m 618.152,312.5 -48,-28 v -56 l 48,-28 48,28 v 56 z"
     fill="#003e6b"
     id="path12"
     clip-path="url(#clipPath27)"
     transform="matrix(1,0,0,-1,0,348)" />
  <path
     d="m 514.589,312.5 -48,-28 v -56 l 48,-28 48,28 v 56 z"
     fill="#08446f"
     id="path13"
     clip-path="url(#clipPath26)"
     style="fill:#006680"
     transform="matrix(1,0,0,-1,0,348)" />
  <path
     d="m 409.836,312.5 -48,-28 v -56 l 48,-28 48,28 v 56 z"
     fill="#003e6b"
     id="path14"
     clip-path="url(#clipPath25)"
     style="fill:none"
     transform="matrix(1,0,0,-1,0,348)" />
  <path
     d="m 306.273,312.5 -48,-28 v -56 l 48,-28 48,28 v 56 z"
     fill="#003e6b"
     id="path15"
     clip-path="url(#clipPath24)"
     style="fill:#216778"
     transform="matrix(1,0,0,-1,0,348)" />
  <path
     d="m 201.52,312.5 -48,-28 v -56 l 48,-28 48,28 v 56 z"
     fill="#003e6b"
     id="path16"
     clip-path="url(#clipPath23)"
     style="fill:none"
     transform="matrix(1,0,0,-1,0,348)" />
  <path
     d="m 97.957,312.5 -48,-28 v -56 l 48,-28 48,28 v 56 z"
     fill="#003e6b"
     id="path17"
     clip-path="url(#clipPath22)"
     transform="matrix(1,0,0,-1,0,348)"
     style="fill:#216778" />
  <path
     d="m -6.797,312.5 -48,-28 v -56 l 48,-28 48,28 v 56 z"
     fill="#003e6b"
     id="path18"
     clip-path="url(#clipPath21)"
     transform="matrix(1,0,0,-1,0,348)" />
  <path
     d="m 878.6719,223.189 -48,-28 v -56 l 48,-28 48,28 v 56 z"
     fill="#003e6b"
     id="path19"
     clip-path="url(#clipPath20)"
     transform="matrix(1,0,0,-1,0,348)" />
  <path
     d="m 774.0918,223.189 -47.9998,-28 v -56 l 47.9998,-28 48,28 v 56 z"
     fill="#003e6b"
     id="path20"
     clip-path="url(#clipPath19)"
     style="fill:#2c89a0"
     transform="matrix(1,0,0,-1,0,348)" />
  <path
     d="m 670.529,223.189 -48,-28 v -56 l 48,-28 48,28 v 56 z"
     fill="#08446f"
     id="path21"
     clip-path="url(#clipPath18)"
     transform="matrix(1,0,0,-1,0,348)" />
  <path
     d="m 565.775,223.189 -48,-28 v -56 l 48,-28 48,28 v 56 z"
     fill="#003e6b"
     id="path22"
     clip-path="url(#clipPath17)"
     style="fill:none"
     transform="matrix(1,0,0,-1,0,348)" />
  <path
     d="m 462.213,223.189 -48,-28 v -56 l 48,-28 48,28 v 56 z"
     fill="#003e6b"
     id="path23"
     clip-path="url(#clipPath16)"
     transform="matrix(1,0,0,-1,0,348)" />
  <path
     d="m 357.459,223.189 -48,-28 v -56 l 48,-28 48,28 v 56 z"
     fill="#134c76"
     id="path24"
     clip-path="url(#clipPath15)"
     transform="matrix(1,0,0,-1,0,348)" />
  <path
     d="m 253.896,223.189 -48,-28 v -56 l 48,-28 48,28 v 56 z"
     fill="#003e6b"
     id="path25"
     clip-path="url(#clipPath14)"
     style="fill:none"
     transform="matrix(1,0,0,-1,0,348)" />
  <path
     d="m 149.143,223.189 -48,-28 v -56 l 48,-28 48,28 v 56 z"
     fill="#003e6b"
     id="path26"
     clip-path="url(#clipPath13)"
     transform="matrix(1,0,0,-1,0,348)" />
  <path
     d="m 45.58,223.189 -48,-28 v -56 l 48,-28 48,28 v 56 z"
     fill="#003a63"
     id="path27"
     clip-path="url(#clipPath12)"
     style="fill:none"
     transform="matrix(1,0,0,-1,0,348)" />
  <path
     d="m 827.6592,132.689 -48,-28 v -56 l 48,-28 47.99998,28 v 56 z"
     fill="#003e6b"
     id="path28"
     clip-path="url(#clipPath11)"
     style="fill:none"
     transform="matrix(1,0,0,-1,0,348)" />
  <path
     d="m 724.096,132.689 -48,-28 v -56 l 48,-28 47.9997,28 v 56 z"
     fill="#003e6b"
     id="path29"
     clip-path="url(#clipPath10)"
     transform="matrix(1,0,0,-1,0,348)" />
  <path
     d="m 619.343,132.689 -48,-28 v -56 l 48,-28 48,28 v 56 z"
     fill="#003a63"
     id="path30"
     clip-path="url(#clipPath9)"
     transform="matrix(1,0,0,-1,0,348)" />
  <path
     d="m 202.71,132.689 -48,-28 v -56 l 48,-28 48,28 v 56 z"
     fill="#003e6b"
     id="path31"
     clip-path="url(#clipPath8)"
     style="fill:#008080"
     transform="matrix(1,0,0,-1,0,348)" />
  <path
     d="m 99.147,132.689 -48,-28 v -56 l 48,-28 48,28 v 56 z"
     fill="#003e6b"
     id="path32"
     clip-path="url(#clipPath7)"
     transform="matrix(1,0,0,-1,0,348)" />
  <path
     d="m -5.606,132.689 -48,-28 v -56 l 48,-28 48,28 v 56 z"
     fill="#134c76"
     id="path33"
     clip-path="url(#clipPath6)"
     transform="matrix(1,0,0,-1,0,348)" />
  <path
     d="m 879.8623,42.189 -48,-28 v -56 l 48,-28 48,28 v 56 z"
     fill="#003e6b"
     id="path34"
     clip-path="url(#clipPath5)"
     style="fill:none"
     transform="matrix(1,0,0,-1,0,348)" />
  <path
     d="m 775.2822,42.189 -48.0002,-28 v -56 l 48.0002,-28 48,28 v 56 z"
     fill="#003e6b"
     id="path35"
     clip-path="url(#clipPath4)"
     style="fill:none"
     transform="matrix(1,0,0,-1,0,348)" />
  <path
     d="m 671.72,42.189 -48,-28 v -56 l 48,-28 48,28 v 56 z"
     fill="#134c76"
     id="path36"
     clip-path="url(#clipPath3)"
     style="fill:#37abc8"
     transform="matrix(1,0,0,-1,0,348)" />
  <path
     d="m 150.333,42.189 -48,-28 v -56 l 48,-28 48,28 v 56 z"
     fill="#08446f"
     id="path37"
     clip-path="url(#clipPath2)"
     transform="matrix(1,0,0,-1,0,348)" />
  <path
     d="m 46.771,42.189 -48,-28 v -56 l 48,-28 48,28 v 56 z"
     fill="#134c76"
     id="path38"
     clip-path="url(#clipPath1)"
     transform="matrix(1,0,0,-1,0,348)" />
  <defs
     id="defs38">
    <clipPath
       clipPathUnits="userSpaceOnUse"
       id="clipPath1">
      <rect
         width="868"
         height="348"
         fill="#ffffff"
         id="rect2"
         x="-868"
         y="-348"
         transform="scale(-1)" />
    </clipPath>
    <clipPath
       clipPathUnits="userSpaceOnUse"
       id="clipPath2">
      <rect
         width="868"
         height="348"
         fill="#ffffff"
         id="rect3"
         x="-868"
         y="-348"
         transform="scale(-1)" />
    </clipPath>
    <clipPath
       clipPathUnits="userSpaceOnUse"
       id="clipPath3">
      <rect
         width="868"
         height="348"
         fill="#ffffff"
         id="rect4"
         x="-868"
         y="-348"
         transform="scale(-1)" />
    </clipPath>
    <clipPath
       clipPathUnits="userSpaceOnUse"
       id="clipPath4">
      <rect
         width="868"
         height="348"
         fill="#ffffff"
         id="rect5"
         x="-868"
         y="-348"
         transform="scale(-1)" />
    </clipPath>
    <clipPath
       clipPathUnits="userSpaceOnUse"
       id="clipPath5">
      <rect
         width="868"
         height="348"
         fill="#ffffff"
         id="rect6"
         x="-868"
         y="-348"
         transform="scale(-1)" />
    </clipPath>
    <clipPath
       clipPathUnits="userSpaceOnUse"
       id="clipPath6">
      <rect
         width="868"
         height="348"
         fill="#ffffff"
         id="rect7"
         x="-868"
         y="-348"
         transform="scale(-1)" />
    </clipPath>
    <clipPath
       clipPathUnits="userSpaceOnUse"
       id="clipPath7">
      <rect
         width="868"
         height="348"
         fill="#ffffff"
         id="rect8"
         x="-868"
         y="-348"
         transform="scale(-1)" />
    </clipPath>
    <clipPath
       clipPathUnits="userSpaceOnUse"
       id="clipPath8">
      <rect
         width="868"
         height="348"
         fill="#ffffff"
         id="rect9"
         x="-868"
         y="-348"
         transform="scale(-1)" />
    </clipPath>
    <clipPath
       clipPathUnits="userSpaceOnUse"
       id="clipPath9">
      <rect
         width="868"
         height="348"
         fill="#ffffff"
         id="rect10"
         x="-868"
         y="-348"
         transform="scale(-1)" />
    </clipPath>
    <clipPath
       clipPathUnits="userSpaceOnUse"
       id="clipPath10">
      <rect
         width="868"
         height="348"
         fill="#ffffff"
         id="rect11"
         x="-868"
         y="-348"
         transform="scale(-1)" />
    </clipPath>
    <clipPath
       clipPathUnits="userSpaceOnUse"
       id="clipPath11">
      <rect
         width="868"
         height="348"
         fill="#ffffff"
         id="rect12"
         x="-868"
         y="-348"
         transform="scale(-1)" />
    </clipPath>
    <clipPath
       clipPathUnits="userSpaceOnUse"
       id="clipPath12">
      <rect
         width="868"
         height="348"
         fill="#ffffff"
         id="rect13"
         x="-868"
         y="-348"
         transform="scale(-1)" />
    </clipPath>
    <clipPath
       clipPathUnits="userSpaceOnUse"
       id="clipPath13">
      <rect
         width="868"
         height="348"
         fill="#ffffff"
         id="rect14"
         x="-868"
         y="-348"
         transform="scale(-1)" />
    </clipPath>
    <clipPath
       clipPathUnits="userSpaceOnUse"
       id="clipPath14">
      <rect
         width="868"
         height="348"
         fill="#ffffff"
         id="rect15"
         x="-868"
         y="-348"
         transform="scale(-1)" />
    </clipPath>
    <clipPath
       clipPathUnits="userSpaceOnUse"
       id="clipPath15">
      <rect
         width="868"
         height="348"
         fill="#ffffff"
         id="rect16"
         x="-868"
         y="-348"
         transform="scale(-1)" />
    </clipPath>
    <clipPath
       clipPathUnits="userSpaceOnUse"
       id="clipPath16">
      <rect
         width="868"
         height="348"
         fill="#ffffff"
         id="rect17"
         x="-868"
         y="-348"
         transform="scale(-1)" />
    </clipPath>
    <clipPath
       clipPathUnits="userSpaceOnUse"
       id="clipPath17">
      <rect
         width="868"
         height="348"
         fill="#ffffff"
         id="rect18"
         x="-868"
         y="-348"
         transform="scale(-1)" />
    </clipPath>
    <clipPath
       clipPathUnits="userSpaceOnUse"
       id="clipPath18">
      <rect
         width="868"
         height="348"
         fill="#ffffff"
         id="rect19"
         x="-868"
         y="-348"
         transform="scale(-1)" />
    </clipPath>
    <clipPath
       clipPathUnits="userSpaceOnUse"
       id="clipPath19">
      <rect
         width="868"
         height="348"
         fill="#ffffff"
         id="rect20"
         x="-868"
         y="-348"
         transform="scale(-1)" />
    </clipPath>
    <clipPath
       clipPathUnits="userSpaceOnUse"
       id="clipPath20">
      <rect
         width="868"
         height="348"
         fill="#ffffff"
         id="rect21"
         x="-868"
         y="-348"
         transform="scale(-1)" />
    </clipPath>
    <clipPath
       clipPathUnits="userSpaceOnUse"
       id="clipPath21">
      <rect
         width="868"
         height="348"
         fill="#ffffff"
         id="rect22"
         x="-868"
         y="-348"
         transform="scale(-1)" />
    </clipPath>
    <clipPath
       clipPathUnits="userSpaceOnUse"
       id="clipPath22">
      <rect
         width="868"
         height="348"
         fill="#ffffff"
         id="rect23"
         x="-868"
         y="-348"
         transform="scale(-1)" />
    </clipPath>
    <clipPath
       clipPathUnits="userSpaceOnUse"
       id="clipPath23">
      <rect
         width="868"
         height="348"
         fill="#ffffff"
         id="rect24"
         x="-868"
         y="-348"
         transform="scale(-1)" />
    </clipPath>
    <clipPath
       clipPathUnits="userSpaceOnUse"
       id="clipPath24">
      <rect
         width="868"
         height="348"
         fill="#ffffff"
         id="rect25"
         x="-868"
         y="-348"
         transform="scale(-1)" />
    </clipPath>
    <clipPath
       clipPathUnits="userSpaceOnUse"
       id="clipPath25">
      <rect
         width="868"
         height="348"
         fill="#ffffff"
         id="rect26"
         x="-868"
         y="-348"
         transform="scale(-1)" />
    </clipPath>
    <clipPath
       clipPathUnits="userSpaceOnUse"
       id="clipPath26">
      <rect
         width="868"
         height="348"
         fill="#ffffff"
         id="rect27"
         x="-868"
         y="-348"
         transform="scale(-1)" />
    </clipPath>
    <clipPath
       clipPathUnits="userSpaceOnUse"
       id="clipPath27">
      <rect
         width="868"
         height="348"
         fill="#ffffff"
         id="rect28"
         x="-868"
         y="-348"
         transform="scale(-1)" />
    </clipPath>
    <clipPath
       clipPathUnits="userSpaceOnUse"
       id="clipPath28">
      <rect
         width="868"
         height="348"
         fill="#ffffff"
         id="rect29"
         x="-868"
         y="-348"
         transform="scale(-1)" />
    </clipPath>
    <clipPath
       clipPathUnits="userSpaceOnUse"
       id="clipPath29">
      <rect
         width="868"
         height="348"
         fill="#ffffff"
         id="rect30"
         x="-868"
         y="-348"
         transform="scale(-1)" />
    </clipPath>
    <clipPath
       clipPathUnits="userSpaceOnUse"
       id="clipPath30">
      <rect
         width="868"
         height="348"
         fill="#ffffff"
         id="rect31"
         x="-868"
         y="-348"
         transform="scale(-1)" />
    </clipPath>
    <clipPath
       clipPathUnits="userSpaceOnUse"
       id="clipPath31">
      <rect
         width="868"
         height="348"
         fill="#ffffff"
         id="rect32"
         x="-868"
         y="-348"
         transform="scale(-1)" />
    </clipPath>
    <clipPath
       clipPathUnits="userSpaceOnUse"
       id="clipPath32">
      <rect
         width="868"
         height="348"
         fill="#ffffff"
         id="rect33"
         x="-868"
         y="-348"
         transform="scale(-1)" />
    </clipPath>
    <clipPath
       clipPathUnits="userSpaceOnUse"
       id="clipPath33">
      <rect
         width="868"
         height="348"
         fill="#ffffff"
         id="rect34"
         x="-868"
         y="-348"
         transform="scale(-1)" />
    </clipPath>
    <clipPath
       clipPathUnits="userSpaceOnUse"
       id="clipPath34">
      <rect
         width="868"
         height="348"
         fill="#ffffff"
         id="rect35"
         x="-868"
         y="-348"
         transform="scale(-1)" />
    </clipPath>
    <clipPath
       clipPathUnits="userSpaceOnUse"
       id="clipPath35">
      <rect
         width="868"
         height="348"
         fill="#ffffff"
         id="rect36"
         x="-868"
         y="-348"
         transform="scale(-1)" />
    </clipPath>
    <clipPath
       clipPathUnits="userSpaceOnUse"
       id="clipPath36">
      <rect
         width="868"
         height="348"
         fill="#ffffff"
         id="rect37"
         x="-868"
         y="-348"
         transform="scale(-1)" />
    </clipPath>
    <clipPath
       clipPathUnits="userSpaceOnUse"
       id="clipPath37">
      <rect
         width="868"
         height="348"
         fill="#ffffff"
         id="rect39"
         x="-868"
         y="-348"
         transform="scale(-1)" />
    </clipPath>
    <clipPath
       clipPathUnits="userSpaceOnUse"
       id="clipPath39">
      <rect
         width="868"
         height="348"
         fill="#ffffff"
         id="rect40"
         x="-868"
         y="-348"
         transform="scale(-1)" />
    </clipPath>
  </defs>
</svg>
